<?xml version="1.0" standalone="no"?>
<!DOCTYPE svg PUBLIC "-//W3C//DTD SVG 20010904//EN"
 "http://www.w3.org/TR/2001/REC-SVG-20010904/DTD/svg10.dtd">
<svg version="1.0" xmlns="http://www.w3.org/2000/svg"
 width="520.000000pt" height="520.000000pt" viewBox="0 0 520.000000 520.000000"
 preserveAspectRatio="xMidYMid meet">
<metadata>
Created by potrace 1.11, written by Peter Selinger 2001-2013
</metadata>
<g transform="translate(0.000000,520.000000) scale(0.100000,-0.100000)"
fill="#000000" stroke="none">
<path d="M2289 5185 c-483 -65 -913 -245 -1287 -538 -121 -95 -314 -284 -408
-401 -212 -262 -421 -662 -489 -935 -68 -274 -90 -444 -90 -721 0 -229 12
-338 61 -556 156 -702 613 -1319 1246 -1683 288 -165 628 -279 963 -322 50 -6
94 -15 99 -20 13 -12 303 -12 380 1 33 5 106 14 161 20 374 40 779 187 1110
405 303 199 600 505 788 811 191 312 314 658 363 1024 19 145 18 525 -1 677
-95 729 -494 1377 -1110 1805 -320 222 -742 383 -1135 432 -144 18 -520 18
-651 1z"/>
</g>
</svg>
