<?xml version="1.0" encoding="utf-8"?>
<!-- Generator: Adobe Illustrator 16.0.0, SVG Export Plug-In . SVG Version: 6.00 Build 0)  -->
<!DOCTYPE svg PUBLIC "-//W3C//DTD SVG 1.1//EN" "http://www.w3.org/Graphics/SVG/1.1/DTD/svg11.dtd">
<svg version="1.1" xmlns="http://www.w3.org/2000/svg" xmlns:xlink="http://www.w3.org/1999/xlink" x="0px" y="0px" width="200px"
	 height="200px" viewBox="0 0 200 200" enable-background="new 0 0 200 200" xml:space="preserve">
<g id="Layer_1" display="none">
	<rect display="inline" fill="#1974D8" width="200" height="200"/>
	
		<line display="inline" fill="none" stroke="#D61A28" stroke-width="11" stroke-miterlimit="10" x1="12" y1="189.5" x2="189" y2="189.5"/>
	<rect x="1.765" y="171.431" display="inline" fill="none" width="194.276" height="26.917"/>
	<text transform="matrix(2.36 0 0 5 11.2324 182.1738)" display="inline" fill="#FFFFFF" font-family="'Impact'" font-size="12">FINTERRITORIAL</text>
</g>
<g id="Layer_2" display="none">
	<ellipse display="inline" fill="#C60018" cx="100.672" cy="99.271" rx="99.286" ry="97.475"/>
	<rect x="25.354" y="100.156" display="inline" fill="none" width="157.556" height="40.646"/>
	<text transform="matrix(2 0 0 2 32.3647 123.4336)" display="inline" fill="#FCFCFC" font-family="'Impact'" font-size="26">WEB.id</text>
</g>
<g id="Layer_3" display="none">
	<rect display="inline" width="201" height="201"/>
	<rect x="0.822" y="101.733" display="inline" fill="none" width="199.178" height="21.548"/>
	
		<text transform="matrix(2 0 0 2 3.2871 109.6084)" display="inline" fill="#1EBB06" font-family="'SquareSansSerif7'" font-size="10.5">MindBudget.js</text>
</g>
<g id="Layer_4">
	<line fill="#FFFFFF" stroke="#000000" stroke-width="11" stroke-miterlimit="10" x1="100.5" y1="191" x2="100.5" y2="102"/>
	<g>
		<polygon points="100.832,49.804 122.416,87.903 145.002,126 101.832,126 58.661,126 80.246,87.903 		"/>
		<g>
			<path d="M94.399,53.564c14.48,25.419,29.189,50.644,44.17,75.771c2.144-3.736,4.288-7.473,6.433-11.21
				c-28.78,0-57.561,0-86.341,0c2.145,3.737,4.289,7.474,6.433,11.21c14.319-25.132,28.361-50.355,42.171-75.771
				c4.588-8.444-8.277-15.964-12.865-7.521c-13.81,25.416-27.852,50.639-42.171,75.772c-2.789,4.895,0.738,11.21,6.433,11.21
				c28.78,0,57.561,0,86.341,0c5.609,0,9.335-6.342,6.433-11.21c-14.98-25.128-29.688-50.353-44.17-75.772
				C102.511,37.698,89.636,45.202,94.399,53.564z"/>
		</g>
	</g>
	<circle fill="none" stroke="#000000" stroke-width="10" stroke-miterlimit="10" cx="99.676" cy="100.46" r="93.243"/>
</g>
<g id="Layer_5" display="none">
	<rect display="inline" fill="#F0F0F0" width="200" height="200"/>
	<rect x="3.449" y="180.522" display="inline" fill="none" width="195.285" height="18.181"/>
	<text transform="matrix(2 0 0 2 9.1699 194.2188)" display="inline" font-family="'Andalus'" font-size="16">DisplaySans.js</text>
</g>
</svg>
